<svg xmlns="http://www.w3.org/2000/svg" xmlns:xlink="http://www.w3.org/1999/xlink" width="100%" height="100%" viewBox="0 0 24 24">
    <defs>
        <path id="a" d="M0 0h18v18H0z"/>
    </defs>
    <g fill="none" fill-rule="evenodd" transform="translate(3 3)">
        <mask id="b" fill="#fff">
            <use xlink:href="#a"/>
        </mask>
        <path fill="#B84C97" d="M16.737 3.158l-1.895-1.894c.54-.433 1.043-.652 1.474-.64.42.013.635.248.649.264a.313.313 0 0 0 .08.064c.019.031.04.061.07.086.002.002.24.216.26.63.021.433-.2.942-.638 1.49zM.67 17.33l.387-2.235 1.848 1.847-2.235.388zM17.511.556c-.013-.01-.03-.015-.044-.023-.009-.015-.012-.031-.024-.044-.038-.047-.392-.454-1.08-.487-.755-.034-1.584.392-2.465 1.273L.568 14.604a.313.313 0 0 0-.086.167l-.477 2.754a.31.31 0 0 0 .147.32.311.311 0 0 0 .323.15l2.754-.477a.31.31 0 0 0 .167-.086l13.33-13.33c.88-.88 1.308-1.71 1.272-2.465-.033-.688-.44-1.042-.487-1.08z" mask="url(#b)"/>
    </g>
</svg>
