<svg xmlns="http://www.w3.org/2000/svg" width="100%" height="100%" viewBox="0 0 84 84">
    <defs>
        <linearGradient id="a" x1="21.301%" x2="78.701%" y1="9.013%" y2="90.988%">
            <stop offset="0%" stop-color="#F4AC8A"/>
            <stop offset="100%" stop-color="#E939BB"/>
        </linearGradient>
        <linearGradient id="b" x1="10.238%" x2="81.389%" y1="18.668%" y2="109.878%">
            <stop offset="0%" stop-color="#F4AC8A"/>
            <stop offset="100%" stop-color="#E939BB"/>
        </linearGradient>
    </defs>
    <g fill="none" fill-rule="nonzero">
        <circle cx="42" cy="42" r="41.8" fill="#FFF"/>
        <circle cx="42" cy="42" r="41.8" fill="#FFF"/>
        <path fill="url(#a)" d="M38 .1C17.1.1.1 17.1.1 38s17 37.9 37.9 37.9 37.9-17 37.9-37.9S58.9.1 38 .1zm0 73.8C18.2 73.9 2.1 57.8 2.1 38 2.1 18.2 18.2 2.1 38 2.1c19.8 0 35.9 16.1 35.9 35.9 0 19.8-16.1 35.9-35.9 35.9z" transform="translate(4 4)"/>
        <path fill="url(#b)" d="M43.9 41.3l-.5-.3.5-.4c3.4-2.7 4.3-5.8 4.5-7.9.2-2.9-.9-5.9-2.9-8.1-1.9-2-4.5-3.3-7.3-3.3h-.1c-2.8 0-5.4 1.2-7.4 3.2-2.1 2.1-3.2 5.1-3.1 8 .1 2.2 1 5.3 4.4 8.1l.4.3-.6.4c-.1.1-.2.1-.3.2-4.7 2.4-7.6 6.3-8.5 11.6-.2 1.1.3 1.3.8 1.5.7.2 1.2-.1 1.5-.8.1-.2.1-.5.2-.7v-.2c1.1-6 6.3-10.4 12.4-10.4 6.2 0 11.4 4.2 12.6 10.4v.3c.1.3.1.8.3.9.5.4 1.2.6 1.5.5.2-.1.6-.8.6-1.2-.1-1-.4-2.1-.7-3-1.4-4.2-4.1-7.2-8.3-9.1zm-6-1.2c-2.1 0-4-.8-5.5-2.3-1.6-1.5-2.4-3.6-2.4-5.8 0-2.1.9-4.1 2.4-5.7 1.5-1.5 3.5-2.3 5.7-2.4 4.4 0 8 3.6 8 8s-3.5 8-8 8.1c-.1.1-.2.1-.2.1z" transform="translate(4 4)"/>
    </g>
</svg>
