<svg xmlns="http://www.w3.org/2000/svg" width="auto" height="100%" viewBox="0 0 19 22">
    <g fill="none" fill-rule="evenodd">
        <path d="M-13-3h45v30h-45z"/>
        <g fill="#B84C97" fill-rule="nonzero">
            <path d="M17.4 3.6h-3.2c-.4.1-.7.2-1 .5-.1.1-.3.3-.5.6-.1.1-.2.2-.3.4h4.8v15H1.8V5c-.2-.2-.5-.3-.7-.5C.9 4.4.8 4.2.7 4c-.2.2-.3.5-.3.8v15.3c0 .7.5 1.2 1.2 1.2h15.8c.7 0 1.2-.5 1.2-1.2V4.8c0-.7-.5-1.2-1.2-1.2z"/>
            <path d="M10.6 6.3s-.1 0-.1.1c-.4.2-.8.3-1.2.3h-.1c-.4.1-.7.1-1.1.1-.7 0-1.4-.1-2.2-.3-.4-.1-.9-.2-1.3-.4H3.5v12.5h12.2V6.2H11c-.2 0-.3.1-.4.1zm2.3 9c-.1.1-.3.2-.5.2H6.6c-.4 0-.7-.3-.7-.7 0-.4.3-.7.7-.7h5.8c.4 0 .7.3.7.7 0 .3-.1.4-.2.5zm.2-4c0 .2-.1.4-.2.5-.1.1-.3.2-.5.2H6.6c-.4 0-.7-.3-.7-.7 0-.4.3-.7.7-.7h5.8c.4 0 .7.3.7.7zM2.8 3.6c.1.1.2.1.3.2.8.5 1.6.9 2.5 1.2.2 0 .4.1.6.1.5.1 1.1.2 1.6.2H9.1c.3-.1.6-.1.9-.3.3-.1.5-.3.8-.4.3-.3.6-.6.8-1 .2-.3.4-.6.7-.8.9-.6 1.9-.9 3-.9h1.1c.2 0 .4 0 .6.1-.4-.5-.9-.9-1.5-1.2-.9-.5-1.8-.7-2.6-.7-.5 0-.9.1-1.4.3h-.1c-.1 0-.1.1-.2.1h-.1-.1c-.8.4-1.6 1-2.3 1.6-.3.3-.6.6-1 .8-.2.2-.4.3-.7.4h-.1c-.6.2-1.2.2-1.8.2-.6 0-1.1-.1-1.7-.3h-.1c-.2-.1-.4-.1-.7-.2 0 .4.1.5.2.6z"/>
        </g>
    </g>
</svg>
