<svg xmlns="http://www.w3.org/2000/svg" width="16" height="18" viewBox="0 0 16 18">
    <g fill="none" fill-rule="evenodd">
        <path d="M-4-3h24v24H-4z"/>
        <g fill="#B84C97" fill-rule="nonzero">
            <path d="M11.2 2C10.1 1.1 8.6.7 7.2.9c-2.1.3-3.5 1.6-4 3.6s0 3.8 1.6 5.2c.2.1.3.3.5.4C2.5 11.3.7 13.3.1 16.3c-.1.5.1.9.5.9h.1c.1 0 .2 0 .3-.1.2-.1.3-.3.3-.6.5-3.2 3.3-5.6 6.6-5.6 1.4 0 2.7-.5 3.6-1.5.9-.9 1.4-2.2 1.4-3.6.1-1.5-.6-2.9-1.7-3.8zm-.6 6.5C9.9 9.2 9 9.6 8 9.6s-1.9-.4-2.6-1.1c-.7-.7-1.1-1.7-1.1-2.7 0-2.1 1.7-3.7 3.8-3.7 1 0 1.9.4 2.6 1.1.7.7 1.1 1.6 1.1 2.6-.1 1-.5 2-1.2 2.7zM15.9 16.4v-.1c-.2-.9-.5-1.7-.9-2.5-.3-.6-.7-1.2-1.3-1.7-.2-.2-.5-.3-.8-.2-.2.1-.4.3-.4.5s.1.5.3.7c.8.8 1.3 1.8 1.6 2.9 0 .1.1.2.1.4s.1.3.1.5c.1.3.3.4.5.5H15.4c.3-.1.5-.3.5-.6v-.1-.3z"/>
        </g>
    </g>
</svg>
