<svg xmlns="http://www.w3.org/2000/svg" width="100%" height="100%" viewBox="0 0 45 45">
                <defs>
                    <linearGradient id="b" x1="0%" x2="102%" y1="0%" y2="101%">
                        <stop offset="0%" stop-color="#F4AC8A" />
                        <stop offset="100%" stop-color="#E939BB" />
                    </linearGradient>
                </defs>
                <g fill="none" fill-rule="evenodd">
                    <circle cx="22.5" cy="22.5" r="22.5" fill="url(#b)" />
                    <path fill="#FFF" d="M21.975 9h.997c.036.007.07.017.107.021.393.048.79.075 1.18.146 1.65.3 3.108.984 4.308 2.152 1.542 1.501 2.25 3.376 2.489 5.454.09.785.098 1.572.053 2.361a.267.267 0 0 0 .014.117c.214.49.454.971.64 1.471.156.419.25.86.37 1.29-.08.27.092.456.228.653l.038.057c.815 1.275 1.433 2.625 1.576 4.145.096 1.018-.08 1.986-.603 2.881-.124.213-.274.263-.488.127a2.013 2.013 0 0 1-.414-.355c-.36-.405-.618-.877-.866-1.354-.023-.046-.05-.09-.086-.155a8.978 8.978 0 0 1-2.583 3.689c.278.088.54.16.793.253.465.17.906.385 1.25.75.36.38.426.871.186 1.333-.133.255-.328.46-.556.634-.643.49-1.392.731-2.181.869-.969.168-1.94.143-2.906-.007-.71-.11-1.398-.291-2.03-.64-.317-.175-.616-.38-.79-.701-.08-.147-.166-.208-.327-.184a.154.154 0 0 1-.054 0c-.085-.016-.125.024-.177.09-.141.182-.281.373-.458.52-.647.536-1.426.779-2.243.923-.824.144-1.653.14-2.482.049-.694-.076-1.374-.219-2.02-.49-.43-.18-.838-.401-1.135-.773-.208-.262-.307-.562-.183-.878.128-.33.3-.642.58-.88.42-.357.918-.566 1.44-.727.165-.05.332-.094.516-.146a9.335 9.335 0 0 1-1.564-1.683A9.335 9.335 0 0 1 13.502 28c-.147.266-.264.52-.42.748-.222.326-.462.642-.716.945-.085.101-.227.169-.356.222-.152.065-.257.021-.332-.124-.136-.266-.282-.53-.386-.81-.374-1.011-.358-2.043-.124-3.079.29-1.286.866-2.448 1.602-3.54a.465.465 0 0 0 .08-.223c.078-1.076.391-2.069 1.066-2.937a.307.307 0 0 0 .054-.174c-.012-.886.044-1.766.198-2.64.228-1.292.642-2.52 1.363-3.631 1.318-2.031 3.195-3.244 5.61-3.651.276-.047.556-.071.834-.106" />
                </g>
            </svg>