<svg xmlns="http://www.w3.org/2000/svg" width="100%" height="100%" viewBox="0 0 20 20">
    <g fill="#B84C97" fill-rule="evenodd">
        <path d="M10 1.25c-4.825 0-8.75 3.925-8.75 8.75s3.925 8.75 8.75 8.75 8.75-3.925 8.75-8.75S14.825 1.25 10 1.25m0 18.333C4.716 19.583.417 15.284.417 10S4.717.417 10 .417c5.284 0 9.583 4.299 9.583 9.583S15.284 19.583 10 19.583"/>
        <path d="M9.422 14.45v-1.224h1.162v1.223H9.422zm.062-2.156c-.003-.143-.005-.25-.005-.322 0-.422.056-.786.17-1.092a2.5 2.5 0 0 1 .402-.698c.136-.17.38-.42.735-.749.353-.329.583-.59.689-.785.105-.195.158-.408.158-.639 0-.417-.155-.784-.465-1.1a1.533 1.533 0 0 0-1.14-.475c-.434 0-.797.143-1.088.43-.291.286-.482.734-.573 1.342l-1.048-.13c.094-.817.375-1.44.842-1.875.466-.434 1.083-.65 1.85-.65.813 0 1.462.232 1.945.698.484.465.726 1.028.726 1.69 0 .381-.085.733-.255 1.055-.17.322-.503.714-.998 1.176-.333.31-.55.54-.652.686a1.562 1.562 0 0 0-.227.507c-.05.191-.077.502-.085.931h-.981z"/>
    </g>
</svg>
