 <svg xmlns="http://www.w3.org/2000/svg" width="100%" height="100%" viewBox="0 0 45 45">
    <defs>
        <linearGradient id="a" x1="0%" x2="102%" y1="0%" y2="101%">
            <stop offset="0%" stop-color="#F4AC8A" />
            <stop offset="100%" stop-color="#E939BB" />
        </linearGradient>
    </defs>
    <g fill="none" fill-rule="evenodd">
        <circle cx="22.5" cy="22.5" r="22.5" fill="url(#a)" />
        <g fill="#FFF">
            <path d="M14.997 15.381c-.848.022-1.55.662-1.52 1.383.032.711.795 1.298 1.632 1.257.77-.039 1.296-.609 1.264-1.369-.031-.75-.616-1.29-1.376-1.27m8.685 1.311c-.01-.774-.555-1.318-1.321-1.315-.83.003-1.58.644-1.572 1.346.007.707.76 1.317 1.602 1.298.787-.019 1.3-.547 1.29-1.329M11.177 29.98l.993-3.049c-.602-.533-1.197-1.007-1.731-1.542-3.274-3.285-3.245-8.019.055-11.289 4.389-4.35 12.564-4.092 16.594.594.822.956 1.358 2.158 1.938 3.366-2.988.041-5.58.765-7.614 2.867-2.077 2.146-2.748 4.714-2.02 7.817-1.145-.102-2.23-.079-3.248-.323-1.01-.24-1.847-.095-2.706.412-.667.394-1.382.706-2.261 1.147" />
            <path d="M31.558 23.075c-.234.29-.743.65-.823 1.088-.112.62.386 1.052 1.037 1.065.653.013 1.214-.273 1.244-1.001.029-.738-.531-.992-1.458-1.152m-5.764 0c-.233.31-.734.69-.796 1.13-.088.63.42 1.052 1.089 1.03.616-.02 1.15-.305 1.18-.996.035-.766-.548-.988-1.473-1.164M34.67 35.17c-1.69-1.843-3.674-1.29-5.682-1.143-2.452.178-4.698-.63-6.564-2.295-3.124-2.79-3.24-7.16-.286-10.117 3.647-3.651 10.365-3.45 13.788.414 2.486 2.807 2.494 6.353-.274 9.024-1.211 1.168-1.758 2.148-.937 3.668.023.042-.01.114-.045.449" />
        </g>
    </g>
</svg>